# xmcd
#
# Track frame offsets:
#  150
#  5860
#  22803
#  37764
#  43946
#  57727
#  62257
#  81843
#  94019
#  106195
#  123233
#  130029
#  140680
#
# Disc length: 2199 seconds
#
# Revision: 0
# Processed by: cddbd v1.5.1PL2 Copyright (c) Steve Scherf et al.
# Submitted via: Collectorz.com_Music_Collector 6.11
#
DISCID=a508950d
DTITLE=Todd Snider - The Beachland Ballroom, Cleveland 29 Dec 2005 [CD2)
DYEAR=1900
DGENRE=Alt Country
TTITLE0=Play A Train Song Intro
TTITLE1=Play A Train Song
TTITLE2=Missing You
TTITLE3=Tillamook County Jail Intro
TTITLE4=Tillamook County Jail
TTITLE5=Tillamook County Jail Outro
TTITLE6=Easy Money
TTITLE7=Incarcerated
TTITLE8=Up Against The Wall Redneck Mother
TTITLE9=Ccrwrswam
TTITLE10=Encore Clapping
TTITLE11=Moondawg's Tavern
TTITLE12=Happy New Year
EXTD=
EXTT0=
EXTT1=
EXTT2=
EXTT3=
EXTT4=
EXTT5=
EXTT6=
EXTT7=
EXTT8=
EXTT9=
EXTT10=
EXTT11=
EXTT12=
PLAYORDER=
